<svg xmlns="http://www.w3.org/2000/svg" viewBox="0 0 500 500"><defs><style>.cls-1{fill:#fff;}.cls-2{fill:#546980;}.cls-3{fill:#c24218;}.cls-4{fill:#ccafa5;}</style></defs><g id="skewed_stroke" data-name="skewed stroke"><polygon points="166.115 439.762 131.313 430.207 139.833 399.216 79.874 382.736 125.104 218.153 155.083 226.393 163.593 195.403 193.574 203.643 202.09 172.657 241.712 183.546 233.195 214.534 313.493 236.603 322.003 205.613 361.628 216.504 353.107 247.484 383.086 255.723 374.575 286.714 404.557 294.954 386.191 361.746 377.682 392.734 369.161 423.725 359.327 459.536 299.365 443.056 290.846 474.047 166.115 439.762"/><polygon points="289.373 207.016 299.219 171.205 306.404 145.038 286.075 139.455 269.036 201.427 229.425 190.536 239.259 154.725 246.453 128.566 216.475 120.326 226.309 84.515 236.154 48.704 266.133 56.943 274.643 25.954 374.226 53.324 365.716 84.314 395.686 92.554 385.852 128.354 376.006 164.167 346.027 155.927 338.841 182.095 328.996 217.906 289.373 207.016"/><polygon class="cls-1" points="304.39 405.92 274.41 397.68 282.92 366.7 291.44 335.71 321.42 343.95 312.9 374.94 304.39 405.92"/><polygon class="cls-1" points="398.41 298.45 389.89 329.44 381.37 360.42 372.86 391.41 364.34 422.4 355.83 453.39 325.85 445.15 295.87 436.91 304.39 405.92 334.36 414.16 342.88 383.17 351.4 352.19 359.91 321.2 368.43 290.21 398.41 298.45"/><polygon class="cls-1" points="265.89 428.67 295.87 436.91 287.35 467.9 257.37 459.66 227.4 451.42 197.42 443.18 167.44 434.94 137.46 426.71 145.98 395.72 175.95 403.96 205.93 412.19 235.91 420.43 244.43 389.45 274.41 397.68 265.89 428.67"/><rect class="cls-2" x="269.069" y="401.752" width="32.137" height="31.09" transform="translate(-192.8 581.662) rotate(-74.634)"/><polygon class="cls-1" points="218.53 249.02 210.02 280.01 201.5 310.99 171.52 302.75 180.04 271.77 188.55 240.78 218.53 249.02"/><polygon class="cls-2" points="368.43 290.21 359.91 321.2 351.4 352.19 342.88 383.17 334.36 414.16 304.39 405.92 312.9 374.94 321.42 343.95 291.44 335.71 282.92 366.7 274.41 397.68 244.43 389.45 235.91 420.43 205.93 412.19 175.95 403.96 145.98 395.72 154.49 364.73 124.51 356.49 133.03 325.5 141.54 294.52 158.58 232.54 188.55 240.78 180.04 271.77 171.52 302.75 201.5 310.99 210.01 280.01 210.02 280.01 218.53 249.02 248.51 257.26 257.03 226.27 316.99 242.75 346.96 250.98 338.45 281.97 368.43 290.21"/><polygon class="cls-1" points="124.51 356.49 154.49 364.73 145.98 395.72 86.02 379.24 128.6 224.3 158.58 232.54 124.51 356.49"/><rect class="cls-1" x="341.626" y="255.049" width="32.137" height="31.092" transform="translate(2.041 543.867) rotate(-74.645)"/><rect class="cls-1" x="221.71" y="222.099" width="32.14" height="31.092" transform="translate(-54.396 403.92) rotate(-74.628)"/><rect class="cls-2" x="191.734" y="213.859" width="32.137" height="31.09" transform="translate(-68.467 368.987) rotate(-74.634)"/><polygon class="cls-1" points="197.07 209.79 188.55 240.78 158.58 232.54 167.09 201.55 197.07 209.79"/><polygon class="cls-1" points="355.48 220 346.96 250.98 316.99 242.75 325.5 211.76 355.48 220"/><rect class="cls-1" x="200.25" y="182.871" width="32.137" height="31.09" transform="translate(-32.328 354.423) rotate(-74.634)"/><polygon class="cls-1" points="342.53 149.78 334.02 180.77 325.5 211.76 295.52 203.52 304.04 172.53 312.55 141.54 342.53 149.78"/><polygon class="cls-1" points="282.58 133.31 274.06 164.29 265.54 195.28 235.57 187.04 244.08 156.05 252.6 125.07 282.58 133.31"/><polygon class="cls-3" points="351.05 118.79 342.53 149.78 312.55 141.54 282.58 133.31 252.6 125.07 261.11 94.08 291.09 102.32 321.07 110.56 351.05 118.79"/><polygon class="cls-1" points="389.54 96.05 381.03 127.03 372.51 158.02 342.53 149.78 351.05 118.79 359.57 87.81 389.54 96.05"/><polygon class="cls-4" points="359.57 87.81 351.05 118.79 321.07 110.56 291.09 102.32 261.11 94.08 269.63 63.09 299.61 71.33 329.59 79.57 359.57 87.81"/><polygon class="cls-1" points="269.63 63.09 261.11 94.08 252.6 125.07 222.62 116.83 231.13 85.84 239.65 54.85 269.63 63.09"/><polygon class="cls-3" points="368.08 56.82 359.57 87.81 329.59 79.57 299.61 71.33 269.63 63.09 278.14 32.1 338.1 48.58 368.08 56.82"/></g></svg>