<svg xmlns="http://www.w3.org/2000/svg" viewBox="0 0 100 100"><defs><style>.cls-1,.cls-2{fill:#fff;}.cls-1{fill-rule:evenodd;}</style></defs><g id="Layer_2" data-name="Layer 2"><path class="cls-1" d="M50,0C22.39,0,0,22.951,0,51.266c0,22.65,14.326,41.867,34.193,48.646,2.5.474,3.416-1.113,3.416-2.467,0-1.222-.046-5.261-.067-9.544C23.632,91,20.7,81.852,20.7,81.852c-2.274-5.925-5.551-7.5-5.551-7.5-4.537-3.182.342-3.117.342-3.117,5.02.362,7.664,5.284,7.664,5.284,4.46,7.837,11.7,5.571,14.551,4.261a11.019,11.019,0,0,1,3.174-6.855C29.77,72.628,18.1,68.231,18.1,48.588a20.126,20.126,0,0,1,5.152-13.761c-.519-1.291-2.23-6.5.485-13.567,0,0,4.2-1.377,13.753,5.256a46.275,46.275,0,0,1,25.041,0c9.543-6.633,13.736-5.256,13.736-5.256,2.721,7.062,1.01,12.276.491,13.567A20.084,20.084,0,0,1,81.9,48.588c0,19.691-11.7,24.026-22.831,25.295,1.794,1.591,3.392,4.711,3.392,9.493,0,6.86-.058,12.381-.058,14.069,0,1.365.9,2.963,3.434,2.46C85.691,93.119,100,73.909,100,51.266,100,22.951,77.614,0,50,0Z"/><path class="cls-2" d="M18.938,73.606a.621.621,0,0,1-.857.157c-.363-.168-.566-.515-.449-.77s.5-.335.861-.16.57.518.445.773Zm-.616-.467"/><path class="cls-2" d="M20.963,75.922c-.238.227-.705.122-1.021-.237A.8.8,0,0,1,19.8,74.62c.245-.226.7-.12,1.025.237s.391.836.142,1.065Zm-.477-.524"/><path class="cls-2" d="M22.935,78.875c-.307.219-.808.014-1.118-.442s-.306-1,.007-1.222.8-.022,1.118.43a.924.924,0,0,1-.007,1.234Zm0,0"/><path class="cls-2" d="M25.635,81.727c-.274.311-.858.227-1.285-.2a1,1,0,0,1-.284-1.31c.278-.31.865-.223,1.3.2s.566,1,.274,1.309Zm0,0"/><path class="cls-2" d="M29.361,83.384c-.121.4-.683.584-1.249.413s-.936-.646-.822-1.051.683-.595,1.253-.413.935.642.818,1.051Zm0,0"/><path class="cls-2" d="M33.453,83.691c.014.422-.466.773-1.061.781s-1.081-.329-1.088-.745.47-.773,1.067-.784,1.082.328,1.082.748Zm0,0"/><path class="cls-2" d="M37.261,83.027c.071.412-.342.835-.932.948s-1.118-.146-1.192-.555.348-.846.928-.956,1.121.143,1.2.563Zm0,0"/></g></svg>