<svg xmlns="http://www.w3.org/2000/svg" viewBox="0 0 100 100"><defs><style>.cls-1{fill:#f2f2f2;fill-rule:evenodd;}</style></defs><g id="Layer_3" data-name="Layer 3"><path class="cls-1" d="M-.007,30.154l27.953.076-1.684-6.984h73.745l-.016,8.143c-12.5,2.492-21.325,8.632-25.173,28.2H72.039l-1.581,4.359h2.307l3.991,12.809h-38.8l3.918-12.809H44.2l-1.646-4.359H39.787L34.635,45.833C13.513,44.59,2.668,40.15-.007,30.154ZM58.67,62.308c-3.082-5.621-5.106-1.2-11.445-6.949-2.473-2.244-3.459-8.82,2.1-10.831-2.526,5.575,4.03,7.856,5.59,4.669.709-1.449,1.6-4.12-.98-5.952a4.426,4.426,0,0,1-.737-5.539c.384,1.21,1.594,2.5,3.916,1.541-4.919-8.14,2.934-10.945,6.711-10.581-3.969.441-6.025,3.977-4.22,7.827,1.15,2.452,2.9,3.659,3.41,5.665-1.7.127-2.185.907-2.15,2.362.027,1.09,2.55,2.665,2.95-.445,1.175,2.424-.241,3.849-1.013,5-1.782,2.652-.1,5.411,2.11,3.307.954-.908,1.615-2.581.4-5.318a7.424,7.424,0,0,1,.908,10.677c-1.756,2.017-6.951,1.391-7.551,4.569Z"/></g></svg>