<svg id="Layer_1" data-name="Layer 1" xmlns="http://www.w3.org/2000/svg" viewBox="0 0 63.677 72.306"><defs><style>.cls-1{fill:#546980;}.cls-2{fill:#fff;}</style></defs><path class="cls-1" d="M49.407,67.847a1,1,0,0,1-.707-.293L23.273,42.126a1,1,0,0,1,.707-1.707H37.013l.062-24.575a1,1,0,0,1,1-1H61.49a1,1,0,0,1,1,1v24.5H76.021a1,1,0,0,1,.691,1.722L50.1,67.568A1,1,0,0,1,49.407,67.847Z" transform="translate(-18.161 -13.847)"/><path class="cls-2" d="M61.49,15.847v25.5H76.02l-26.613,25.5L23.98,41.419H38.01l.065-25.572H61.49m0-2H38.075a2,2,0,0,0-2,2l-.06,23.577H23.98a2,2,0,0,0-1.414,3.415L47.993,68.261a2,2,0,0,0,2.8.03L77.4,42.791a2,2,0,0,0-1.384-3.444H63.49v-23.5a2,2,0,0,0-2-2Z" transform="translate(-18.161 -13.847)"/><path class="cls-1" d="M20.161,85.153a1,1,0,0,1-1-1V69.508a1,1,0,0,1,1-1h6.733a1,1,0,0,1,1,1v7.645H72.425V69.508a1,1,0,0,1,1-1h6.414a1,1,0,0,1,1,1V84.153a1,1,0,0,1-1,1Z" transform="translate(-18.161 -13.847)"/><path class="cls-2" d="M79.839,69.508V84.153H20.161V69.508h6.733v8.645H73.425V69.508h6.414m0-2H73.425a2,2,0,0,0-2,2v6.645H28.894V69.508a2,2,0,0,0-2-2H20.161a2,2,0,0,0-2,2V84.153a2,2,0,0,0,2,2H79.839a2,2,0,0,0,2-2V69.508a2,2,0,0,0-2-2Z" transform="translate(-18.161 -13.847)"/></svg>