<svg id="Layer_1" data-name="Layer 1" xmlns="http://www.w3.org/2000/svg" viewBox="0 0 100 100"><defs><style>.cls-1{fill:#546980;}.cls-2{fill:#fff;}</style></defs><path class="cls-1" d="M49.252,72.754a1.5,1.5,0,0,1-1.061-.44L16.112,40.235a1.5,1.5,0,0,1,1.06-2.561H33.377l.078-30.766a1.5,1.5,0,0,1,1.5-1.5H64.5a1.5,1.5,0,0,1,1.5,1.5V37.583H82.827a1.5,1.5,0,0,1,1.038,2.583L50.29,72.337A1.5,1.5,0,0,1,49.252,72.754Z"/><path class="cls-2" d="M64.5,6.912V39.083H82.828L49.252,71.254l-32.08-32.08h17.7l.082-32.262H64.5m0-3H34.955a3,3,0,0,0-3,2.992l-.074,29.27H17.172A3,3,0,0,0,15.051,41.3l32.08,32.08a3,3,0,0,0,4.2.044L84.9,41.249a3,3,0,0,0-2.075-5.166H67.5V6.912a3,3,0,0,0-3-3Z"/><path class="cls-1" d="M12.355,94.589a1.5,1.5,0,0,1-1.5-1.5V74.611a1.5,1.5,0,0,1,1.5-1.5h8.494a1.5,1.5,0,0,1,1.5,1.5v9.408H78.054V74.611a1.5,1.5,0,0,1,1.5-1.5h8.092a1.5,1.5,0,0,1,1.5,1.5V93.089a1.5,1.5,0,0,1-1.5,1.5Z"/><path class="cls-2" d="M87.645,74.612V93.088H12.355V74.612h8.493V85.519H79.553V74.612h8.092m0-3H79.553a3,3,0,0,0-3,3v7.907h-52.7V74.612a3,3,0,0,0-3-3H12.355a3,3,0,0,0-3,3V93.088a3,3,0,0,0,3,3h75.29a3,3,0,0,0,3-3V74.612a3,3,0,0,0-3-3Z"/></svg>