<svg xmlns="http://www.w3.org/2000/svg" viewBox="0 0 1193.618 500"><defs><style>.cls-1{fill:#fff;}.cls-2{fill:#409122;}.cls-3{fill:#c24218;}.cls-4{fill:#ccafa5;}</style></defs><g id="Potion"><g id="Outline"><polygon points="233.016 399.074 242.586 364.237 252.166 329.391 289.86 339.75 280.279 374.598 270.711 409.435 233.016 399.074"/><polygon points="254.476 438.304 265.116 399.601 295.086 407.84 311.066 349.727 319.575 318.737 329.156 283.891 366.85 294.25 348.749 360.078 340.24 391.066 331.72 422.058 322.15 456.904 254.476 438.304"/><polygon points="129.902 437.395 96.065 428.105 106.706 389.4 140.533 398.701 170.512 406.93 196.637 414.11 205.156 383.131 242.851 393.479 234.33 424.471 264.31 432.71 253.67 471.414 129.902 437.395"/><rect x="228.593" y="396.35" width="40.137" height="39.09" transform="translate(-218.261 545.449) rotate(-74.633)"/><polygon points="130.125 304.145 139.706 269.307 149.275 234.46 186.969 244.82 177.4 279.667 167.818 314.504 130.125 304.145"/><polygon points="168.393 414.645 138.414 406.415 104.587 397.114 113.097 366.124 83.116 357.884 92.696 323.037 101.205 292.058 119.306 226.22 156.989 236.581 147.42 271.427 139.961 298.551 162.226 304.67 170.484 274.607 170.493 274.607 179.255 242.7 209.236 250.94 217.756 219.95 281.573 237.49 315.399 246.779 306.889 277.771 336.87 286.011 327.289 320.857 318.78 351.847 300.68 417.674 262.997 407.314 272.565 372.478 280.026 345.344 257.76 339.225 250.3 366.357 240.73 401.193 210.75 392.963 202.229 423.944 168.393 414.645"/><polygon points="44.626 380.634 89.326 217.98 127.02 228.34 92.95 352.29 122.929 360.53 112.301 399.234 44.626 380.634"/><rect x="301.149" y="249.646" width="40.137" height="39.092" transform="translate(-23.427 507.657) rotate(-74.644)"/><rect x="181.233" y="216.696" width="40.14" height="39.092" transform="translate(-79.851 367.718) rotate(-74.628)"/><rect x="151.257" y="208.456" width="40.136" height="39.09" transform="translate(-93.927 332.777) rotate(-74.632)"/><polygon points="117.187 233.934 127.815 195.23 165.51 205.59 154.87 244.295 117.187 233.934"/><polygon points="275.597 244.145 286.225 205.44 323.921 215.8 313.28 254.493 275.597 244.145"/><rect x="159.773" y="177.469" width="40.136" height="39.09" transform="translate(-57.786 318.219) rotate(-74.634)"/><polygon points="254.126 204.914 263.706 170.067 273.275 135.22 310.969 145.581 301.4 180.426 291.819 215.274 254.126 204.914"/><polygon points="194.177 188.434 203.745 153.588 213.327 118.75 251.021 129.11 231.859 198.795 194.177 188.434"/><polygon points="275.013 143.994 245.043 135.765 211.207 126.465 221.835 87.76 285.653 105.3 319.491 114.589 308.85 153.294 275.013 143.994"/><polygon points="301.136 151.174 320.297 81.49 357.979 91.851 348.41 126.687 338.83 161.534 301.136 151.174"/><polygon points="283.534 113.015 219.716 95.474 230.356 56.771 328.011 83.61 317.37 122.303 283.534 113.015"/><polygon points="181.227 118.224 190.796 83.378 200.376 48.53 238.07 58.891 228.489 93.738 218.921 128.585 181.227 118.224"/><rect x="262.309" y="7.915" width="40.137" height="101.275" transform="translate(151.145 315.348) rotate(-74.646)"/></g><g id="Potion-2" data-name="Potion"><polygon class="cls-1" points="267.913 404.517 237.933 396.277 246.443 365.297 254.963 334.307 284.943 342.547 276.423 373.537 267.913 404.517"/><polygon class="cls-1" points="361.933 297.047 353.413 328.037 344.893 359.017 336.383 390.007 327.863 420.997 319.353 451.987 289.373 443.747 259.393 435.507 267.913 404.517 297.883 412.757 306.403 381.767 314.923 350.787 323.433 319.797 331.953 288.807 361.933 297.047"/><polygon class="cls-1" points="229.413 427.267 259.393 435.507 250.873 466.497 220.893 458.257 190.923 450.017 160.943 441.777 130.963 433.537 100.983 425.307 109.503 394.317 139.473 402.557 169.453 410.787 199.433 419.027 207.953 388.047 237.933 396.277 229.413 427.267"/><rect class="cls-2" x="232.592" y="400.349" width="32.137" height="31.09" transform="translate(-218.259 545.458) rotate(-74.634)"/><polygon class="cls-1" points="182.053 247.617 173.543 278.607 165.023 309.587 135.043 301.347 143.563 270.367 152.073 239.377 182.053 247.617"/><polygon class="cls-2" points="331.953 288.807 323.433 319.797 314.923 350.787 306.403 381.767 297.883 412.757 267.913 404.517 276.423 373.537 284.943 342.547 254.963 334.307 246.443 365.297 237.933 396.277 207.953 388.047 199.433 419.027 169.453 410.787 139.473 402.557 109.503 394.317 118.013 363.327 88.033 355.087 96.553 324.097 105.063 293.117 122.103 231.137 152.073 239.377 143.563 270.367 135.043 301.347 165.023 309.587 173.533 278.607 173.543 278.607 182.053 247.617 212.033 255.857 220.553 224.867 280.513 241.347 310.483 249.577 301.973 280.567 331.953 288.807"/><polygon class="cls-1" points="88.033 355.087 118.013 363.327 109.503 394.317 49.543 377.837 92.123 222.897 122.103 231.137 88.033 355.087"/><rect class="cls-1" x="305.149" y="253.646" width="32.137" height="31.092" transform="translate(-23.424 507.661) rotate(-74.645)"/><rect class="cls-1" x="185.233" y="220.696" width="32.14" height="31.092" transform="matrix(0.265, -0.964, 0.964, 0.265, -79.851, 367.717)"/><rect class="cls-2" x="155.257" y="212.456" width="32.137" height="31.09" transform="translate(-93.925 332.783) rotate(-74.634)"/><polygon class="cls-1" points="160.593 208.387 152.073 239.377 122.103 231.137 130.613 200.147 160.593 208.387"/><polygon class="cls-1" points="319.003 218.597 310.483 249.577 280.513 241.347 289.023 210.357 319.003 218.597"/><rect class="cls-1" x="163.772" y="181.469" width="32.137" height="31.09" transform="translate(-57.786 318.219) rotate(-74.634)"/><polygon class="cls-1" points="306.053 148.377 297.543 179.367 289.023 210.357 259.043 202.117 267.563 171.127 276.073 140.137 306.053 148.377"/><polygon class="cls-1" points="246.103 131.907 237.583 162.887 229.063 193.877 199.093 185.637 207.603 154.647 216.123 123.667 246.103 131.907"/><polygon class="cls-3" points="314.573 117.387 306.053 148.377 276.073 140.137 246.103 131.907 216.123 123.667 224.633 92.677 254.613 100.917 284.593 109.157 314.573 117.387"/><polygon class="cls-1" points="353.063 94.647 344.553 125.627 336.033 156.617 306.053 148.377 314.573 117.387 323.093 86.407 353.063 94.647"/><polygon class="cls-4" points="323.093 86.407 314.573 117.387 284.593 109.157 254.613 100.917 224.633 92.677 233.153 61.687 263.133 69.927 293.113 78.167 323.093 86.407"/><polygon class="cls-1" points="233.153 61.687 224.633 92.677 216.123 123.667 186.143 115.427 194.653 84.437 203.173 53.447 233.153 61.687"/><polygon class="cls-3" points="331.603 55.417 323.093 86.407 293.113 78.167 263.133 69.927 233.153 61.687 241.663 30.697 301.623 47.177 331.603 55.417"/></g></g><g id="Layer_7" data-name="Layer 7"><polygon points="461.43 207.332 461.43 122.132 452.39 122.132 452.39 139.172 427.35 139.172 427.35 122.132 418.31 122.132 418.31 207.332 393.27 207.332 393.27 80.052 418.31 80.052 418.31 97.092 435.35 97.092 435.35 114.132 444.39 114.132 444.39 97.092 461.43 97.092 461.43 80.052 486.469 80.052 486.469 207.332 461.43 207.332"/><path d="M495.509,207.332v-93.2h25.04v93.2Zm0-102.24V80.052h25.04v25.04Z"/><polygon points="597.749 207.332 597.749 139.172 554.629 139.172 554.629 207.332 529.589 207.332 529.589 114.132 605.749 114.132 605.749 131.172 622.788 131.172 622.788 207.332 597.749 207.332"/><path d="M648.868,207.332v-17.04h-17.04v-59.12h17.04v-17.04h59.12v17.04h17.039v42.079H656.868v9.041h68.159v25.04Zm51.12-59.12v-9.04h-43.12v9.04Z"/><polygon points="751.107 207.332 751.107 190.292 734.067 190.292 734.067 131.172 751.107 131.172 751.107 114.132 810.228 114.132 810.228 131.172 827.267 131.172 827.267 156.212 802.228 156.212 802.228 139.172 759.107 139.172 759.107 182.292 802.228 182.292 802.228 165.251 827.267 165.251 827.267 190.292 810.228 190.292 810.228 207.332 751.107 207.332"/><polygon points="836.307 207.332 836.307 114.132 861.347 114.132 861.347 131.172 870.387 131.172 870.387 114.132 912.467 114.132 912.467 131.172 929.506 131.172 929.506 156.212 904.467 156.212 904.467 139.172 878.387 139.172 878.387 156.212 861.347 156.212 861.347 207.332 836.307 207.332"/><path d="M955.586,207.332v-17.04h-17.04V165.251h17.04V148.212h51.12v-9.04h-51.12v-25.04h59.12v17.04h17.039v76.16Zm51.12-25.04v-9.041h-43.12v9.041Z"/><polygon points="1057.825 207.332 1057.825 139.172 1040.785 139.172 1040.785 114.132 1057.825 114.132 1057.825 97.092 1074.865 97.092 1074.865 80.052 1116.945 80.052 1116.945 105.092 1082.865 105.092 1082.865 114.132 1116.945 114.132 1116.945 139.172 1082.865 139.172 1082.865 207.332 1057.825 207.332"/><polygon points="1160.064 207.332 1160.064 190.292 1143.024 190.292 1143.024 139.172 1125.984 139.172 1125.984 114.132 1143.024 114.132 1143.024 80.052 1168.064 80.052 1168.064 114.132 1185.104 114.132 1185.104 139.172 1168.064 139.172 1168.064 182.292 1185.104 182.292 1185.104 207.332 1160.064 207.332"/><polygon points="495.509 411.811 495.509 284.011 410.31 284.011 410.31 233.412 652.608 233.412 652.608 284.011 567.409 284.011 567.409 411.811 495.509 411.811"/><path d="M836.308,411.811v-21.3h-98.5v21.3h-71.9v-50.6h21.3v-42.6h21.3v-42.6h21.3v-42.6h114.5v42.6h21.3v42.6h21.3v42.6h21.3v50.6Zm-21.3-71.9v-13.3h-21.3v-42.6h-13.3v42.6h-21.3v13.3Z"/><polygon points="921.507 411.811 921.507 361.211 1091.906 361.211 1091.906 347.911 942.807 347.911 942.807 326.611 921.507 326.611 921.507 254.711 942.807 254.711 942.807 233.412 1163.806 233.412 1163.806 284.011 993.406 284.011 993.406 297.311 1142.506 297.311 1142.506 318.611 1163.806 318.611 1163.806 390.511 1142.506 390.511 1142.506 411.811 921.507 411.811"/><path class="cls-1" d="M397.269,203.332V84.052h17.04v17.04h17.04v17.04h-17.04v85.2Zm34.08-68.16v-17.04h17.04v17.04Zm34.08,68.16v-85.2h-17.04v-17.04h17.04V84.052h17.039v119.28Z"/><path class="cls-1" d="M499.508,101.092V84.052h17.04v17.04Zm0,102.24v-85.2h17.04v85.2Z"/><path class="cls-1" d="M533.588,203.332v-85.2h68.16v17.04h-51.12v68.16Zm68.16,0v-68.16h17.039v68.16Z"/><path class="cls-1" d="M635.827,186.292v-51.12h17.04v17.04h51.12v-17.04h17.039v34.079H652.867v17.041Zm17.04-51.12v-17.04h51.12v17.04Zm0,68.16v-17.04h68.159v17.04Z"/><path class="cls-1" d="M738.066,186.292v-51.12h17.04v51.12Zm17.04-51.12v-17.04h51.121v17.04Zm0,68.16v-17.04h51.121v17.04Zm51.121-51.12v-17.04h17.039v17.04Zm0,34.08V169.251h17.039v17.041Z"/><path class="cls-1" d="M840.306,203.332v-85.2h17.04v17.04h17.04v17.04h-17.04v51.12Zm34.08-68.16v-17.04h34.08v17.04Zm34.08,17.04v-17.04h17.039v17.04Z"/><path class="cls-1" d="M942.545,186.292V169.251h17.04v17.041Zm17.04-51.12v-17.04h51.12v17.04Zm0,68.16v-17.04h51.12V169.251h-51.12V152.212h51.12v-17.04h17.039v68.16Z"/><path class="cls-1" d="M1061.824,203.332v-68.16h-17.04v-17.04h17.04v-17.04h17.04v17.04h34.08v17.04h-34.08v68.16Zm17.04-102.24V84.052h34.08v17.04Z"/><path class="cls-1" d="M1147.023,186.292v-51.12h-17.04v-17.04h17.04V84.052h17.04v34.08H1181.1v17.04h-17.041v51.12Zm17.04,17.04v-17.04H1181.1v17.04Z"/><path class="cls-1" d="M414.309,280.011v-42.6h234.3v42.6h-85.2v127.8h-63.9v-127.8Z"/><path class="cls-1" d="M669.907,407.811v-42.6h21.3v-42.6h21.3v-42.6h21.3v-42.6h106.5v42.6h21.3v42.6h21.3v42.6h21.3v42.6h-63.9v-21.3h-106.5v21.3Zm106.5-127.8v42.6h-21.3v21.3h63.9v-21.3h-21.3v-42.6Z"/><path class="cls-1" d="M925.506,407.811v-42.6h170.4v-21.3h-149.1v-21.3h-21.3v-63.9h21.3v-21.3h213v42.6h-170.4v21.3h149.1v21.3h21.3v63.9h-21.3v21.3Z"/></g></svg>